<svg width="59" height="126" viewBox="0 0 59 126" fill="none" xmlns="http://www.w3.org/2000/svg">
<path d="M29.5905 0.837933C25.7927 1.03252 22.8812 4.27026 23.0877 8.06972C23.2965 11.8692 26.5442 14.7913 30.3421 14.5967C34.1411 14.4033 37.0525 11.1632 36.846 7.36605C36.6384 3.56543 33.3895 0.642188 29.5905 0.837933ZM19.2937 17.9803C20.9028 19.176 22.7634 19.9883 24.7518 20.2402L31.3513 21.0716C34.7546 21.5008 38.2235 20.6678 40.9686 18.6192C41.6212 18.131 42.3373 17.7088 43.1125 17.3641C48.9235 14.7768 55.7749 17.5457 58.1383 23.5459C60.2478 28.9021 57.9002 35.0543 52.7677 37.6296C45.855 41.101 40.9933 36.6803 38.611 33.476C37.2729 31.6784 35.2512 30.5157 33.0294 30.2358L27.4586 29.5327C23.9883 29.0942 21.0813 32.11 21.6422 35.562L22.2939 39.5665C23.062 44.2786 25.7655 48.4183 29.6637 51.1851C31.6464 52.5928 33.291 54.5329 34.357 56.9128C37.5759 64.1011 34.2726 72.5373 26.978 75.5783C20.2103 78.4003 11.9008 75.1524 8.81196 68.4822C6.57353 63.6483 7.30956 58.2236 10.2456 54.2462C13.0628 50.4269 14.2884 45.6605 13.5238 40.9658L12.2868 33.3648C11.9597 31.3521 11.137 29.4441 9.84646 27.8649C9.46567 27.401 9.14262 26.8817 8.88655 26.3092C7.75681 23.7871 8.26339 20.9524 9.94874 18.994L10.4844 18.4398C11.0225 17.941 11.6496 17.5176 12.3578 17.2028C14.7157 16.1524 17.3538 16.5368 19.2937 17.9803Z" fill="url(#paint0_linear_10476_458)"/>
<path d="M-27.2609 111.257C-31.0588 111.452 -33.9702 114.689 -33.7626 118.49C-33.5561 122.287 -30.3073 125.21 -26.5094 125.016C-22.7092 124.821 -19.799 121.585 -20.0066 117.784C-20.2131 113.985 -23.4607 111.062 -27.2609 111.257ZM-16.4033 108.874C-17.9489 107.596 -19.7681 106.692 -21.7403 106.338L-28.2906 105.17C-31.6686 104.568 -35.1758 105.222 -38.0217 107.128C-38.6985 107.58 -39.4367 107.967 -40.2281 108.27C-46.1642 110.556 -52.8658 107.441 -54.9195 101.33C-56.753 95.8737 -54.0931 89.8513 -48.8355 87.5396C-41.7548 84.4279 -37.1228 89.0899 -34.9069 92.4119C-33.6634 94.2765 -31.7029 95.542 -29.4983 95.934L-23.9688 96.9214C-20.5261 97.5355 -17.4663 94.6747 -17.8504 91.1987L-18.2976 87.1678C-18.8218 82.4225 -21.3139 78.1501 -25.0644 75.1893C-26.9732 73.68 -28.515 71.6602 -29.4586 69.2296C-32.3066 61.8857 -28.5766 53.6314 -21.1348 50.9685C-14.2291 48.4969 -6.09608 52.1641 -3.35149 58.982C-1.36144 63.9254 -2.37608 69.3024 -5.51108 73.127C-8.52144 76.7946 -9.98992 81.4915 -9.46571 86.2183L-8.61924 93.872C-8.39623 95.8961 -7.67051 97.8433 -6.46084 99.4871C-6.10778 99.9695 -5.81012 100.505 -5.58409 101.089C-4.5849 103.665 -5.23369 106.471 -7.01854 108.339L-7.58084 108.867C-8.14552 109.336 -8.79352 109.728 -9.51676 110.004C-11.9268 110.933 -14.5407 110.414 -16.4033 108.874Z" fill="url(#paint1_linear_10476_458)"/>
<defs>
<linearGradient id="paint0_linear_10476_458" x1="37.0271" y1="1.10136" x2="-39.2971" y2="112.35" gradientUnits="userSpaceOnUse">
<stop stop-color="white" stop-opacity="0.652873"/>
<stop offset="0.403152" stop-color="#C7C7C7" stop-opacity="0.779455"/>
<stop offset="0.541007" stop-color="#EBEBEB" stop-opacity="0.692871"/>
<stop offset="0.819808" stop-color="#A4A4A4" stop-opacity="0.645026"/>
<stop offset="1" stop-opacity="0"/>
</linearGradient>
<linearGradient id="paint1_linear_10476_458" x1="37.0271" y1="1.10136" x2="-39.2971" y2="112.35" gradientUnits="userSpaceOnUse">
<stop stop-color="white" stop-opacity="0.652873"/>
<stop offset="0.403152" stop-color="#C7C7C7" stop-opacity="0.779455"/>
<stop offset="0.541007" stop-color="#EBEBEB" stop-opacity="0.692871"/>
<stop offset="0.819808" stop-color="#A4A4A4" stop-opacity="0.645026"/>
<stop offset="1" stop-opacity="0"/>
</linearGradient>
</defs>
</svg>
