<svg width="78" height="115" viewBox="0 0 78 115" fill="none" xmlns="http://www.w3.org/2000/svg">
<path d="M0.17973 29.7186C0.374321 33.5164 3.61206 36.4278 7.41152 36.2214C11.211 36.0126 14.1331 32.7649 13.9385 28.967C13.745 25.168 10.505 22.2566 6.70785 22.4631C2.90723 22.6707 -0.0160151 25.9195 0.17973 29.7186ZM17.3221 40.0154C18.5178 38.4063 19.3301 36.5456 19.582 34.5573L20.4134 27.9577C20.8426 24.5545 20.0096 21.0856 17.961 18.3404C17.4728 17.6879 17.0506 16.9718 16.7058 16.1966C14.1186 10.3856 16.8875 3.53421 22.8877 1.1708C28.2439 -0.93876 34.3961 1.40885 36.9714 6.54138C40.4428 13.454 36.0221 18.3158 32.8178 20.698C31.0202 22.0362 29.8575 24.0579 29.5776 26.2797L28.8745 31.8505C28.436 35.3208 31.4518 38.2278 34.9038 37.6669L38.9083 37.0152C43.6204 36.2471 47.7601 33.5436 50.5269 29.6454C51.9346 27.6627 53.8747 26.0181 56.2546 24.9521C63.4429 21.7332 71.8791 25.0365 74.9201 32.3311C77.7421 39.0988 74.4942 47.4083 67.8239 50.4971C62.9901 52.7356 57.5654 51.9995 53.588 49.0635C49.7687 46.2463 45.0023 45.0207 40.3076 45.7852L32.7066 47.0223C30.6939 47.3494 28.7859 48.1721 27.2067 49.4626C26.7428 49.8434 26.2235 50.1665 25.651 50.4225C23.1289 51.5523 20.2942 51.0457 18.3358 49.3603L17.7816 48.8247C17.2828 48.2866 16.8593 47.6594 16.5446 46.9513C15.4942 44.5934 15.8786 41.9553 17.3221 40.0154Z" fill="url(#paint0_linear_10476_409)"/>
<path d="M110.599 86.57C110.793 90.3679 114.031 93.2793 117.832 93.0717C121.629 92.8652 124.552 89.6163 124.358 85.8185C124.163 82.0183 120.926 79.108 117.126 79.3157C113.326 79.5222 110.404 82.7698 110.599 86.57ZM108.216 75.7124C106.938 77.258 106.034 79.0772 105.68 81.0494L104.512 87.5997C103.91 90.9777 104.564 94.4849 106.47 97.3308C106.922 98.0076 107.309 98.7458 107.612 99.5372C109.898 105.473 106.783 112.175 100.672 114.229C95.2155 116.062 89.1931 113.402 86.8814 108.145C83.7697 101.064 88.4317 96.4319 91.7537 94.216C93.6183 92.9725 94.8838 91.012 95.2758 88.8074L96.2632 83.2779C96.8773 79.8351 94.0165 76.7753 90.5405 77.1595L86.5096 77.6066C81.7643 78.1309 77.4919 80.623 74.5311 84.3735C73.0218 86.2823 71.002 87.8241 68.5714 88.7676C61.2275 91.6157 52.9732 87.8857 50.3103 80.4439C47.8387 73.5382 51.5059 65.4052 58.3238 62.6606C63.2672 60.6705 68.6442 61.6852 72.4688 64.8202C76.1364 67.8305 80.8333 69.299 85.5601 68.7748L93.2138 67.9283C95.2379 67.7053 97.1851 66.9796 98.8289 65.7699C99.3113 65.4169 99.8468 65.1192 100.431 64.8932C103.007 63.894 105.813 64.5428 107.681 66.3276L108.208 66.8899C108.678 67.4546 109.069 68.1026 109.346 68.8258C110.275 71.2359 109.755 73.8498 108.216 75.7124Z" fill="url(#paint1_linear_10476_409)"/>
<defs>
<linearGradient id="paint0_linear_10476_409" x1="0.443158" y1="22.2819" x2="111.692" y2="98.6062" gradientUnits="userSpaceOnUse">
<stop stop-color="white" stop-opacity="0.652873"/>
<stop offset="0.403152" stop-color="#C7C7C7" stop-opacity="0.779455"/>
<stop offset="0.541007" stop-color="#EBEBEB" stop-opacity="0.692871"/>
<stop offset="0.819808" stop-color="#A4A4A4" stop-opacity="0.645026"/>
<stop offset="1" stop-opacity="0"/>
</linearGradient>
<linearGradient id="paint1_linear_10476_409" x1="0.443158" y1="22.2819" x2="111.692" y2="98.6062" gradientUnits="userSpaceOnUse">
<stop stop-color="white" stop-opacity="0.652873"/>
<stop offset="0.403152" stop-color="#C7C7C7" stop-opacity="0.779455"/>
<stop offset="0.541007" stop-color="#EBEBEB" stop-opacity="0.692871"/>
<stop offset="0.819808" stop-color="#A4A4A4" stop-opacity="0.645026"/>
<stop offset="1" stop-opacity="0"/>
</linearGradient>
</defs>
</svg>
