<svg width="64" height="125" viewBox="0 0 64 125" fill="none" xmlns="http://www.w3.org/2000/svg">
<path d="M34.5905 0.157269C30.7927 0.351861 27.8812 3.5896 28.0877 7.38906C28.2965 11.1885 31.5442 14.1106 35.3421 13.916C39.1411 13.7226 42.0525 10.4825 41.846 6.68539C41.6384 2.88477 38.3895 -0.0384761 34.5905 0.157269ZM24.2937 17.2996C25.9028 18.4954 27.7634 19.3077 29.7518 19.5595L36.3513 20.391C39.7546 20.8201 43.2235 19.9871 45.9686 17.9386C46.6212 17.4504 47.3373 17.0281 48.1125 16.6834C53.9235 14.0961 60.7749 16.865 63.1383 22.8653C65.2478 28.2215 62.9002 34.3737 57.7677 36.949C50.855 40.4204 45.9933 35.9997 43.611 32.7954C42.2729 30.9977 40.2512 29.835 38.0294 29.5552L32.4586 28.852C28.9883 28.4136 26.0813 31.4294 26.6422 34.8813L27.2939 38.8859C28.062 43.5979 30.7655 47.7376 34.6637 50.5044C36.6464 51.9121 38.291 53.8523 39.357 56.2322C42.5759 63.4204 39.2726 71.8567 31.978 74.8977C25.2103 77.7196 16.9008 74.4718 13.812 67.8015C11.5735 62.9676 12.3096 57.5429 15.2456 53.5655C18.0628 49.7463 19.2884 44.9798 18.5238 40.2851L17.2868 32.6841C16.9597 30.6714 16.137 28.7634 14.8465 27.1842C14.4657 26.7203 14.1426 26.201 13.8865 25.6286C12.7568 23.1064 13.2634 20.2717 14.9487 18.3133L15.4844 17.7591C16.0225 17.2604 16.6496 16.8369 17.3578 16.5221C19.7157 15.4718 22.3538 15.8561 24.2937 17.2996Z" fill="url(#paint0_linear_10476_410)"/>
<path d="M-22.2609 110.576C-26.0588 110.771 -28.9702 114.009 -28.7626 117.809C-28.5561 121.606 -25.3073 124.53 -21.5094 124.335C-17.7092 124.141 -14.799 120.904 -15.0066 117.103C-15.2131 113.304 -18.4607 110.382 -22.2609 110.576ZM-11.4033 108.194C-12.9489 106.916 -14.7681 106.011 -16.7403 105.657L-23.2906 104.49C-26.6686 103.887 -30.1758 104.541 -33.0217 106.447C-33.6985 106.9 -34.4367 107.286 -35.2281 107.589C-41.1642 109.876 -47.8658 106.76 -49.9195 100.649C-51.753 95.193 -49.0931 89.1706 -43.8355 86.859C-36.7548 83.7472 -32.1228 88.4092 -29.9069 91.7312C-28.6634 93.5958 -26.7029 94.8613 -24.4983 95.2533L-18.9688 96.2407C-15.5261 96.8548 -12.4663 93.9941 -12.8504 90.518L-13.2976 86.4872C-13.8218 81.7419 -16.3139 77.4694 -20.0644 74.5086C-21.9732 72.9993 -23.515 70.9795 -24.4586 68.5489C-27.3066 61.205 -23.5766 52.9507 -16.1348 50.2878C-9.22914 47.8162 -1.09608 51.4835 1.64851 58.3013C3.63856 63.2447 2.62392 68.6217 -0.511083 72.4464C-3.52144 76.114 -4.98992 80.8108 -4.46571 85.5376L-3.61924 93.1913C-3.39623 95.2154 -2.67051 97.1627 -1.46084 98.8065C-1.10778 99.2888 -0.810124 99.8243 -0.584091 100.408C0.415104 102.985 -0.233688 105.79 -2.01854 107.658L-2.58084 108.186C-3.14552 108.656 -3.79352 109.047 -4.51676 109.323C-6.92681 110.252 -9.54073 109.733 -11.4033 108.194Z" fill="url(#paint1_linear_10476_410)"/>
<defs>
<linearGradient id="paint0_linear_10476_410" x1="42.0271" y1="0.420697" x2="-34.2971" y2="111.67" gradientUnits="userSpaceOnUse">
<stop stop-color="white" stop-opacity="0.652873"/>
<stop offset="0.403152" stop-color="#C7C7C7" stop-opacity="0.779455"/>
<stop offset="0.541007" stop-color="#EBEBEB" stop-opacity="0.692871"/>
<stop offset="0.819808" stop-color="#A4A4A4" stop-opacity="0.645026"/>
<stop offset="1" stop-opacity="0"/>
</linearGradient>
<linearGradient id="paint1_linear_10476_410" x1="42.0271" y1="0.420697" x2="-34.2971" y2="111.67" gradientUnits="userSpaceOnUse">
<stop stop-color="white" stop-opacity="0.652873"/>
<stop offset="0.403152" stop-color="#C7C7C7" stop-opacity="0.779455"/>
<stop offset="0.541007" stop-color="#EBEBEB" stop-opacity="0.692871"/>
<stop offset="0.819808" stop-color="#A4A4A4" stop-opacity="0.645026"/>
<stop offset="1" stop-opacity="0"/>
</linearGradient>
</defs>
</svg>
