<svg width="56" height="76" viewBox="0 0 56 76" fill="none" xmlns="http://www.w3.org/2000/svg">
<path d="M25.2619 75.2884C28.4807 75.1235 30.9482 72.3794 30.7732 69.1593C30.5962 65.9392 27.8437 63.4626 24.625 63.6275C21.4052 63.7915 18.9377 66.5375 19.1127 69.7557C19.2887 72.9768 22.0421 75.4543 25.2619 75.2884ZM33.9887 60.7599C32.625 59.7464 31.048 59.058 29.3629 58.8445L23.7696 58.1399C20.8852 57.7762 17.9452 58.4821 15.6187 60.2183C15.0657 60.6321 14.4587 60.99 13.8017 61.2821C8.87676 63.4749 3.07004 61.1282 1.06699 56.0428C-0.720915 51.5033 1.26874 46.2892 5.61868 44.1066C11.4773 41.1645 15.5978 44.9111 17.6168 47.6268C18.7509 49.1504 20.4643 50.1358 22.3474 50.373L27.0687 50.9689C30.0099 51.3405 32.4737 48.7845 31.9983 45.8589L31.4459 42.465C30.795 38.4714 28.5037 34.9629 25.1999 32.618C23.5195 31.4249 22.1257 29.7806 21.2222 27.7636C18.4941 21.6714 21.2937 14.5215 27.4761 11.9441C33.2119 9.55243 40.2543 12.3051 42.8722 17.9583C44.7694 22.0551 44.1455 26.6527 41.6572 30.0237C39.2696 33.2605 38.2308 37.3002 38.8788 41.2791L39.9273 47.7211C40.2044 49.4269 40.9017 51.044 41.9955 52.3824C42.3182 52.7756 42.592 53.2157 42.809 53.7009C43.7665 55.8384 43.3372 58.2409 41.9088 59.9007L41.4548 60.3704C40.9988 60.7931 40.4672 61.152 39.867 61.4188C37.8687 62.309 35.6328 61.9832 33.9887 60.7599Z" fill="url(#paint0_linear_10476_407)"/>
<path d="M73.4449 -18.2945C76.6636 -18.4594 79.1311 -21.2034 78.9552 -24.4245C78.7802 -27.6427 76.0267 -30.1202 72.8079 -29.9553C69.5872 -29.7904 67.1207 -27.0473 67.2966 -23.8262C67.4716 -20.6061 70.2241 -18.1295 73.4449 -18.2945ZM64.2428 -16.2749C65.5527 -15.192 67.0945 -14.4252 68.766 -14.1256L74.3175 -13.1359C77.1805 -12.6253 80.1529 -13.1794 82.5649 -14.795C83.1385 -15.1784 83.7641 -15.5058 84.4348 -15.7627C89.4659 -17.7007 95.1456 -15.0602 96.8862 -9.88113C98.4401 -5.25668 96.1858 -0.152525 91.7298 1.80663C85.7288 4.44391 81.8031 0.492753 79.925 -2.32274C78.8711 -3.90302 77.2095 -4.97556 75.3411 -5.30776L70.6547 -6.14464C67.7369 -6.6651 65.1437 -4.24054 65.4692 -1.29452L65.8482 2.12176C66.2925 6.1435 68.4046 9.76449 71.5832 12.2738C73.201 13.553 74.5077 15.2649 75.3074 17.3249C77.7212 23.549 74.5599 30.5447 68.2529 32.8015C62.4001 34.8963 55.5071 31.7882 53.181 26.0099C51.4944 21.8203 52.3544 17.2631 55.0113 14.0217C57.5627 10.9133 58.8073 6.93259 58.363 2.92652L57.6456 -3.5602C57.4566 -5.27568 56.8415 -6.92601 55.8163 -8.31916C55.5171 -8.72798 55.2648 -9.18181 55.0732 -9.67672C54.2264 -11.8602 54.7762 -14.2381 56.289 -15.8214L56.7655 -16.2685C57.2441 -16.6667 57.7933 -16.9982 58.4063 -17.2326C60.4488 -18.0199 62.6642 -17.5795 64.2428 -16.2749Z" fill="url(#paint1_linear_10476_407)"/>
<defs>
<linearGradient id="paint0_linear_10476_407" x1="18.9592" y1="75.0651" x2="83.6458" y2="-19.221" gradientUnits="userSpaceOnUse">
<stop stop-color="white" stop-opacity="0.652873"/>
<stop offset="0.403152" stop-color="#C7C7C7" stop-opacity="0.779455"/>
<stop offset="0.541007" stop-color="#EBEBEB" stop-opacity="0.692871"/>
<stop offset="0.819808" stop-color="#A4A4A4" stop-opacity="0.645026"/>
<stop offset="1" stop-opacity="0"/>
</linearGradient>
<linearGradient id="paint1_linear_10476_407" x1="18.9592" y1="75.0651" x2="83.6458" y2="-19.221" gradientUnits="userSpaceOnUse">
<stop stop-color="white" stop-opacity="0.652873"/>
<stop offset="0.403152" stop-color="#C7C7C7" stop-opacity="0.779455"/>
<stop offset="0.541007" stop-color="#EBEBEB" stop-opacity="0.692871"/>
<stop offset="0.819808" stop-color="#A4A4A4" stop-opacity="0.645026"/>
<stop offset="1" stop-opacity="0"/>
</linearGradient>
</defs>
</svg>
