<svg width="70" height="95" viewBox="0 0 70 95" fill="none" xmlns="http://www.w3.org/2000/svg">
<path d="M43.9065 1.13852C39.5026 0.19707 35.1799 3.00827 34.2516 7.41764C33.3259 11.8277 36.1452 16.1656 40.5491 17.1071C44.954 18.0502 49.2773 15.2364 50.205 10.8296C51.1323 6.41858 48.3121 2.07901 43.9065 1.13852ZM26.8742 17.5912C28.3483 19.4521 30.2276 20.9516 32.4248 21.8491L39.719 24.8229C43.4804 26.3569 47.7037 26.4673 51.4716 24.9654C52.3677 24.6069 53.3162 24.3435 54.3086 24.1867C61.7486 23.0083 68.7371 28.2755 69.6014 35.8634C70.3728 42.6367 65.8018 48.9545 59.1415 50.3272C50.1704 52.1793 45.9641 45.6325 44.2212 41.237C43.2416 38.7706 41.2854 36.821 38.8297 35.8199L32.673 33.3081C28.8378 31.743 24.5881 34.3017 24.1718 38.4222L23.6899 43.2026C23.1242 48.828 24.9478 54.3919 28.5589 58.7515C30.3953 60.9694 31.6819 63.6928 32.1718 66.7418C33.6506 75.9508 27.2864 84.5883 18.0103 85.8311C9.40391 86.9847 0.89446 80.7227 -0.594352 72.1461C-1.67325 65.9307 0.83133 59.9511 5.40885 56.3014C9.8019 52.7961 12.6648 47.7196 13.2292 42.1151L14.1438 33.0414C14.3866 30.6389 14.0303 28.2042 13.0381 26.0023C12.7447 25.355 12.5344 24.6619 12.4169 23.9286C11.8977 20.6974 13.346 17.6101 15.874 15.8865L16.6567 15.4167C17.425 15.0112 18.2722 14.719 19.1787 14.576C22.1978 14.0972 25.0976 15.3454 26.8742 17.5912Z" fill="url(#paint0_linear_10476_361)"/>
<path d="M-54.9675 110.019C-59.3714 109.077 -63.694 111.888 -64.6214 116.299C-65.549 120.706 -62.7288 125.046 -58.3249 125.987C-53.9183 126.929 -49.5974 124.119 -48.67 119.708C-47.7417 115.299 -50.5609 110.961 -54.9675 110.019ZM-41.8175 110.621C-43.1938 108.686 -44.9974 107.093 -47.145 106.084L-54.2798 102.741C-57.9591 101.016 -62.1713 100.689 -66.0109 101.997C-66.9237 102.307 -67.8865 102.523 -68.8847 102.627C-76.3757 103.423 -83.0865 97.8057 -83.5627 90.1862C-83.9876 83.3828 -79.0992 77.3092 -72.3766 76.2765C-63.3235 74.8873 -59.454 81.6397 -57.9374 86.1188C-57.0866 88.6328 -55.2319 90.6812 -52.8302 91.8053L-46.8079 94.6296C-43.058 96.3872 -38.6812 94.0527 -38.0552 89.9589L-37.3312 85.211C-36.4765 79.6223 -38.0176 73.9714 -41.4002 69.4351C-43.121 67.1236 -44.2656 64.3407 -44.5999 61.2711C-45.6068 51.9978 -38.8103 43.6992 -29.4817 42.9341C-20.8249 42.2235 -12.6457 48.9111 -11.596 57.551C-10.8348 63.8156 -13.6434 69.6552 -18.4017 73.0692C-22.9693 76.3418 -26.0886 81.2643 -26.9377 86.8318L-28.3153 95.8461C-28.6806 98.2298 -28.4473 100.68 -27.5674 102.931C-27.3114 103.591 -27.1351 104.294 -27.0555 105.032C-26.7022 108.285 -28.3043 111.295 -30.9185 112.885L-31.7234 113.316C-32.5133 113.681 -33.3744 113.929 -34.2865 114.024C-37.328 114.348 -40.1587 112.953 -41.8175 110.621Z" fill="url(#paint1_linear_10476_361)"/>
<defs>
<linearGradient id="paint0_linear_10476_361" x1="52.3323" y1="3.71917" x2="-69.0703" y2="107.58" gradientUnits="userSpaceOnUse">
<stop stop-color="white" stop-opacity="0.652873"/>
<stop offset="0.403152" stop-color="#C7C7C7" stop-opacity="0.779455"/>
<stop offset="0.541007" stop-color="#EBEBEB" stop-opacity="0.692871"/>
<stop offset="0.819808" stop-color="#A4A4A4" stop-opacity="0.645026"/>
<stop offset="1" stop-opacity="0"/>
</linearGradient>
<linearGradient id="paint1_linear_10476_361" x1="52.3323" y1="3.71917" x2="-69.0703" y2="107.58" gradientUnits="userSpaceOnUse">
<stop stop-color="white" stop-opacity="0.652873"/>
<stop offset="0.403152" stop-color="#C7C7C7" stop-opacity="0.779455"/>
<stop offset="0.541007" stop-color="#EBEBEB" stop-opacity="0.692871"/>
<stop offset="0.819808" stop-color="#A4A4A4" stop-opacity="0.645026"/>
<stop offset="1" stop-opacity="0"/>
</linearGradient>
</defs>
</svg>
