<svg width="28" height="34" viewBox="0 0 28 34" fill="none" xmlns="http://www.w3.org/2000/svg">
<path d="M23.4332 10.3251L13.9998 0.908447L4.5665 10.3251C1.9665 12.9251 0.666504 16.3918 0.666504 19.7251C0.666504 23.0585 1.9665 26.5751 4.5665 29.1751C7.1665 31.7751 10.5832 33.0918 13.9998 33.0918C17.4165 33.0918 20.8332 31.7751 23.4332 29.1751C26.0332 26.5751 27.3332 23.0585 27.3332 19.7251C27.3332 16.3918 26.0332 12.9251 23.4332 10.3251ZM3.99984 20.3251C4.0165 16.9918 5.03317 14.8751 6.93317 12.9918L13.9998 5.77511L21.0665 13.0751C22.9665 14.9418 23.9832 16.9918 23.9998 20.3251H3.99984Z" fill="black"/>
</svg>
