<svg width="61" height="126" viewBox="0 0 61 126" fill="none" xmlns="http://www.w3.org/2000/svg">
<path d="M31.5905 0.837933C27.7927 1.03252 24.8812 4.27026 25.0877 8.06972C25.2965 11.8692 28.5442 14.7913 32.3421 14.5967C36.1411 14.4033 39.0525 11.1632 38.846 7.36605C38.6384 3.56543 35.3895 0.642188 31.5905 0.837933ZM21.2937 17.9803C22.9028 19.176 24.7634 19.9883 26.7518 20.2402L33.3513 21.0716C36.7546 21.5008 40.2235 20.6678 42.9686 18.6192C43.6212 18.131 44.3373 17.7088 45.1125 17.3641C50.9235 14.7768 57.7749 17.5457 60.1383 23.5459C62.2478 28.9021 59.9002 35.0543 54.7677 37.6296C47.855 41.101 42.9933 36.6803 40.611 33.476C39.2729 31.6784 37.2512 30.5157 35.0294 30.2358L29.4586 29.5327C25.9883 29.0942 23.0813 32.11 23.6422 35.562L24.2939 39.5665C25.062 44.2786 27.7655 48.4183 31.6637 51.1851C33.6464 52.5928 35.291 54.5329 36.357 56.9128C39.5759 64.1011 36.2726 72.5373 28.978 75.5783C22.2103 78.4003 13.9008 75.1524 10.812 68.4822C8.57353 63.6483 9.30956 58.2236 12.2456 54.2462C15.0628 50.4269 16.2884 45.6605 15.5238 40.9658L14.2868 33.3648C13.9597 31.3521 13.137 29.4441 11.8465 27.8649C11.4657 27.401 11.1426 26.8817 10.8865 26.3092C9.75681 23.7871 10.2634 20.9524 11.9487 18.994L12.4844 18.4398C13.0225 17.941 13.6496 17.5176 14.3578 17.2028C16.7157 16.1524 19.3538 16.5368 21.2937 17.9803Z" fill="url(#paint0_linear_10476_544)"/>
<path d="M-25.2609 111.257C-29.0588 111.452 -31.9702 114.689 -31.7626 118.49C-31.5561 122.287 -28.3073 125.21 -24.5094 125.016C-20.7092 124.821 -17.799 121.585 -18.0066 117.784C-18.2131 113.985 -21.4607 111.062 -25.2609 111.257ZM-14.4033 108.874C-15.9489 107.596 -17.7681 106.692 -19.7403 106.338L-26.2906 105.17C-29.6686 104.568 -33.1758 105.222 -36.0217 107.128C-36.6985 107.58 -37.4367 107.967 -38.2281 108.27C-44.1642 110.556 -50.8658 107.441 -52.9195 101.33C-54.753 95.8737 -52.0931 89.8513 -46.8355 87.5396C-39.7548 84.4279 -35.1228 89.0899 -32.9069 92.4119C-31.6634 94.2765 -29.7029 95.542 -27.4983 95.934L-21.9688 96.9214C-18.5261 97.5355 -15.4663 94.6747 -15.8504 91.1987L-16.2976 87.1678C-16.8218 82.4225 -19.3139 78.1501 -23.0644 75.1893C-24.9732 73.68 -26.515 71.6602 -27.4586 69.2296C-30.3066 61.8857 -26.5766 53.6314 -19.1348 50.9685C-12.2291 48.4969 -4.09608 52.1641 -1.35149 58.982C0.638561 63.9254 -0.376078 69.3024 -3.51108 73.127C-6.52144 76.7946 -7.98992 81.4915 -7.46571 86.2183L-6.61924 93.872C-6.39623 95.8961 -5.67051 97.8433 -4.46084 99.4871C-4.10778 99.9695 -3.81012 100.505 -3.58409 101.089C-2.5849 103.665 -3.23369 106.471 -5.01854 108.339L-5.58084 108.867C-6.14552 109.336 -6.79352 109.728 -7.51676 110.004C-9.92681 110.933 -12.5407 110.414 -14.4033 108.874Z" fill="url(#paint1_linear_10476_544)"/>
<defs>
<linearGradient id="paint0_linear_10476_544" x1="39.0271" y1="1.10136" x2="-37.2971" y2="112.35" gradientUnits="userSpaceOnUse">
<stop stop-color="white" stop-opacity="0.652873"/>
<stop offset="0.403152" stop-color="#C7C7C7" stop-opacity="0.779455"/>
<stop offset="0.541007" stop-color="#EBEBEB" stop-opacity="0.692871"/>
<stop offset="0.819808" stop-color="#A4A4A4" stop-opacity="0.645026"/>
<stop offset="1" stop-opacity="0"/>
</linearGradient>
<linearGradient id="paint1_linear_10476_544" x1="39.0271" y1="1.10136" x2="-37.2971" y2="112.35" gradientUnits="userSpaceOnUse">
<stop stop-color="white" stop-opacity="0.652873"/>
<stop offset="0.403152" stop-color="#C7C7C7" stop-opacity="0.779455"/>
<stop offset="0.541007" stop-color="#EBEBEB" stop-opacity="0.692871"/>
<stop offset="0.819808" stop-color="#A4A4A4" stop-opacity="0.645026"/>
<stop offset="1" stop-opacity="0"/>
</linearGradient>
</defs>
</svg>
