<svg width="76" height="115" viewBox="0 0 76 115" fill="none" xmlns="http://www.w3.org/2000/svg">
<path d="M0.17973 29.3992C0.374321 33.1971 3.61206 36.1085 7.41152 35.902C11.211 35.6932 14.1331 32.4456 13.9385 28.6477C13.745 24.8487 10.505 21.9373 6.70785 22.1437C2.90723 22.3514 -0.0160151 25.6002 0.17973 29.3992ZM17.3221 39.696C18.5178 38.087 19.3301 36.2263 19.582 34.238L20.4134 27.6384C20.8426 24.2351 20.0096 20.7662 17.961 18.0211C17.4728 17.3686 17.0506 16.6524 16.7058 15.8773C14.1186 10.0663 16.8875 3.21487 22.8877 0.851467C28.2439 -1.2581 34.3961 1.08952 36.9714 6.22204C40.4428 13.1347 36.0221 17.9964 32.8178 20.3787C31.0202 21.7168 29.8575 23.7385 29.5776 25.9604L28.8745 31.5311C28.436 35.0014 31.4518 37.9085 34.9038 37.3475L38.9083 36.6958C43.6204 35.9277 47.7601 33.2243 50.5269 29.326C51.9346 27.3434 53.8747 25.6988 56.2546 24.6328C63.4429 21.4139 71.8791 24.7172 74.9201 32.0117C77.7421 38.7795 74.4942 47.0889 67.8239 50.1778C62.9901 52.4162 57.5654 51.6802 53.588 48.7442C49.7687 45.927 45.0023 44.7013 40.3076 45.4659L32.7066 46.703C30.6939 47.03 28.7859 47.8528 27.2067 49.1433C26.7428 49.5241 26.2235 49.8471 25.651 50.1032C23.1289 51.2329 20.2942 50.7264 18.3358 49.041L17.7816 48.5053C17.2828 47.9673 16.8593 47.3401 16.5446 46.6319C15.4942 44.274 15.8786 41.636 17.3221 39.696Z" fill="url(#paint0_linear_10476_543)"/>
<path d="M110.599 86.2507C110.793 90.0485 114.031 92.96 117.832 92.7523C121.629 92.5458 124.552 89.297 124.358 85.4991C124.163 81.699 120.926 78.7887 117.126 78.9963C113.326 79.2028 110.404 82.4505 110.599 86.2507ZM108.216 75.3931C106.938 76.9387 106.034 78.7578 105.68 80.7301L104.512 87.2803C103.91 90.6584 104.564 94.1656 106.47 97.0115C106.922 97.6883 107.309 98.4264 107.612 99.2178C109.898 105.154 106.783 111.856 100.672 113.909C95.2155 115.743 89.1931 113.083 86.8814 107.825C83.7697 100.745 88.4317 96.1126 91.7537 93.8966C93.6183 92.6532 94.8838 90.6926 95.2758 88.488L96.2632 82.9586C96.8773 79.5158 94.0165 76.456 90.5405 76.8401L86.5096 77.2873C81.7643 77.8115 77.4919 80.3036 74.5311 84.0541C73.0218 85.9629 71.002 87.5047 68.5714 88.4483C61.2275 91.2963 52.9732 87.5664 50.3103 80.1246C47.8387 73.2189 51.5059 65.0858 58.3238 62.3412C63.2672 60.3512 68.6442 61.3658 72.4688 64.5008C76.1364 67.5112 80.8333 68.9797 85.5601 68.4555L93.2138 67.609C95.2379 67.386 97.1851 66.6603 98.8289 65.4506C99.3113 65.0975 99.8468 64.7999 100.431 64.5738C103.007 63.5746 105.813 64.2234 107.681 66.0083L108.208 66.5706C108.678 67.1353 109.069 67.7833 109.346 68.5065C110.275 70.9166 109.755 73.5305 108.216 75.3931Z" fill="url(#paint1_linear_10476_543)"/>
<defs>
<linearGradient id="paint0_linear_10476_543" x1="0.443158" y1="21.9626" x2="111.692" y2="98.2868" gradientUnits="userSpaceOnUse">
<stop stop-color="white" stop-opacity="0.652873"/>
<stop offset="0.403152" stop-color="#C7C7C7" stop-opacity="0.779455"/>
<stop offset="0.541007" stop-color="#EBEBEB" stop-opacity="0.692871"/>
<stop offset="0.819808" stop-color="#A4A4A4" stop-opacity="0.645026"/>
<stop offset="1" stop-opacity="0"/>
</linearGradient>
<linearGradient id="paint1_linear_10476_543" x1="0.443158" y1="21.9626" x2="111.692" y2="98.2868" gradientUnits="userSpaceOnUse">
<stop stop-color="white" stop-opacity="0.652873"/>
<stop offset="0.403152" stop-color="#C7C7C7" stop-opacity="0.779455"/>
<stop offset="0.541007" stop-color="#EBEBEB" stop-opacity="0.692871"/>
<stop offset="0.819808" stop-color="#A4A4A4" stop-opacity="0.645026"/>
<stop offset="1" stop-opacity="0"/>
</linearGradient>
</defs>
</svg>
